<svg width="176" height="37" viewBox="0 0 176 37" fill="none" xmlns="http://www.w3.org/2000/svg">
<g clip-path="url(#clip0_1013_190)">
<mask id="mask0_1013_190" style="mask-type:luminance" maskUnits="userSpaceOnUse" x="0" y="0" width="176" height="37">
<path d="M0 0H175.89V36.08H0V0Z" fill="white"/>
</mask>
<g mask="url(#mask0_1013_190)">
<path d="M4.9487 5.505C4.06638 5.50592 3.19447 5.31447 2.3937 4.944C2.01383 5.94679 1.67817 6.96577 1.3877 7.998C2.4857 8.451 3.6877 8.703 4.9487 8.703C9.6777 8.703 13.5897 5.182 14.1637 0.647C13.1227 0.387 12.0637 0.171 10.9897 0C10.7297 3.078 8.1187 5.505 4.9487 5.505Z" fill="white"/>
<path d="M4.94872 27.374C3.72672 27.373 2.51645 27.6122 1.38672 28.078C1.67779 29.1101 2.01344 30.1291 2.39272 31.132C3.19381 30.7615 4.06607 30.57 4.94872 30.571C8.12172 30.571 10.7317 32.999 10.9917 36.08C12.0578 35.91 13.1162 35.6941 14.1637 35.433C13.5907 30.897 9.67872 27.373 4.94872 27.373V27.374Z" fill="#00BFB3"/>
<path d="M4.94816 21.8818C3.32016 21.8818 1.75216 22.1438 0.285156 22.6278C0.419156 23.7048 0.600156 24.7678 0.825156 25.8148C2.14306 25.317 3.54037 25.0626 4.94916 25.0638C10.7432 25.0638 15.5592 29.2878 16.4292 34.7918C17.4692 34.4618 18.4892 34.0898 19.4892 33.6758C18.1232 26.9578 12.1222 21.8818 4.94816 21.8818Z" fill="#00BFB3"/>
<path d="M22.6318 18.0379C22.6318 22.4069 24.5658 26.3369 27.6288 29.0309C28.4955 28.3818 29.334 27.6958 30.1418 26.9749C27.5218 24.8609 25.8438 21.6409 25.8438 18.0379C25.8438 14.4359 27.5198 11.2179 30.1388 9.10385C29.3313 8.38291 28.4932 7.69694 27.6268 7.04785C24.5648 9.74185 22.6318 13.6709 22.6318 18.0379Z" fill="#005FB8"/>
<path d="M28.1729 18.0378C28.1729 21.0218 29.6129 23.6768 31.8389 25.3608C32.5949 24.596 33.3179 23.7993 34.0059 22.9728C33.2032 22.4237 32.5463 21.6875 32.0919 20.8276C31.6375 19.9678 31.3993 19.0103 31.3979 18.0378C31.3995 17.0656 31.6377 16.1084 32.0919 15.2488C32.5461 14.3892 33.2026 13.653 34.0049 13.1038C33.3165 12.2776 32.5932 11.4812 31.8369 10.7168C29.6129 12.4008 28.1739 15.0548 28.1739 18.0368L28.1729 18.0378Z" fill="#005FB8"/>
<path d="M4.94816 11.0121C3.53943 11.0137 2.14211 10.7596 0.824156 10.2621C0.598067 11.3157 0.418228 12.3787 0.285156 13.4481C1.75216 13.9321 3.32016 14.1941 4.94816 14.1941C12.1212 14.1941 18.1202 9.12109 19.4862 2.40409C18.4829 1.9876 17.462 1.61524 16.4262 1.28809C15.5562 6.79109 10.7392 11.0121 4.94616 11.0121H4.94816Z" fill="white"/>
<path d="M24.5645 4.98023L24.3965 4.88023C24.4535 4.91323 24.5095 4.94823 24.5645 4.98223V4.98023ZM23.7005 4.47323C23.8305 4.54623 23.9585 4.62223 24.0855 4.69623C23.9585 4.62223 23.8295 4.54623 23.7005 4.47323ZM19.4795 8.54123C19.7165 8.16923 19.9395 7.78723 20.1475 7.39623C19.9135 7.76923 19.6895 8.15123 19.4795 8.54123ZM24.0855 4.69623C24.1905 4.75723 24.2935 4.81723 24.3965 4.88023L24.0865 4.69623H24.0855Z" fill="black"/>
<path d="M22.2637 25.9395C22.4717 26.3305 22.6947 26.7125 22.9327 27.0865C22.7227 26.6965 22.4987 26.3145 22.2637 25.9395Z" fill="#4D65AF"/>
<path d="M22.8311 3.99023C19.2741 7.62823 17.0811 12.5842 17.0811 18.0382C17.0811 18.8622 17.1321 19.6742 17.2311 20.4722C19.2348 21.9762 20.9448 23.8358 22.2761 25.9582C20.9747 23.5213 20.2949 20.8009 20.2971 18.0382C20.2971 13.1762 22.3671 8.78423 25.6771 5.68123C24.7538 5.07675 23.8045 4.51287 22.8321 3.99123L22.8311 3.99023Z" fill="#005FB8"/>
<path d="M13.0301 18.0381C10.956 18.9294 8.74829 19.4698 6.49707 19.6371C13.9191 20.2971 19.9951 25.6611 21.6611 32.6911C22.6528 32.2045 23.6225 31.6739 24.5671 31.1011C22.8951 25.2281 18.6041 20.4331 13.0301 18.0381Z" fill="#00BFB3"/>
<path d="M19.4903 8.52241C17.9364 10.9721 15.7883 12.9891 13.2456 14.3857C10.7029 15.7824 7.8483 16.5132 4.9473 16.5104C3.2533 16.5104 1.6143 16.2644 0.0673041 15.8094C0.00176102 16.9044 -0.0159225 18.0018 0.0143041 19.0984C1.5943 19.4884 3.2463 19.6984 4.9463 19.6984C9.376 19.7051 13.6874 18.269 17.2283 15.6074C17.5307 13.1259 18.2974 10.7234 19.4883 8.52541L19.4903 8.52241ZM63.1573 13.7574C62.0953 12.8794 60.8313 12.2784 59.4403 12.2784C56.5063 12.2784 54.3823 14.7594 54.3823 17.8424C54.3823 20.9264 56.1783 23.4074 59.4143 23.4074C60.7543 23.4074 62.1203 22.8304 63.1313 21.8774L65.4583 24.7854C63.6383 26.1894 61.5123 26.9154 59.2363 26.9154C53.9003 26.9154 50.0313 23.1314 50.0313 17.8424C50.0313 12.5544 54.2303 8.76941 59.4143 8.76941C61.5643 8.76941 63.2583 9.44641 65.1293 10.6234L63.1563 13.7574H63.1573ZM80.1443 19.8984C80.1443 23.8584 77.1853 26.9164 72.9863 26.9164C68.7883 26.9164 65.8293 23.8584 65.8293 19.8984C65.8293 15.9374 68.7883 12.8794 72.9863 12.8794C77.1853 12.8794 80.1443 15.9374 80.1443 19.8984ZM72.9863 16.2884C71.1663 16.2884 69.9783 17.8434 69.9783 19.8984C69.9783 21.9534 71.1663 23.5064 72.9863 23.5064C74.8073 23.5064 75.9963 21.9534 75.9963 19.8984C75.9963 17.8434 74.8073 16.2884 72.9863 16.2884ZM85.5063 13.1804L85.8593 14.9094C86.9983 13.4054 88.6163 12.8784 90.0063 12.8784C91.3213 12.8784 92.6113 13.5804 93.4963 14.6584C94.6093 16.0624 94.7113 17.7664 94.7113 19.6464V26.6144H90.6143V19.7974C90.6143 18.9194 90.6143 17.8914 90.3113 17.2154C90.0083 16.5384 89.3753 16.2874 88.6933 16.2874C87.8083 16.2874 86.7203 16.7634 86.1643 17.6924V26.6154H82.0673V13.1804H85.5073H85.5063ZM101.644 16.4884V21.4014C101.644 21.8274 101.644 22.2034 101.721 22.6054C101.821 23.1564 102.074 23.5084 102.656 23.5084C103.238 23.5084 103.642 23.3824 104.123 23.1324L105.413 26.0904C104.452 26.6404 103.061 26.9174 101.923 26.9174C99.7233 26.9174 98.1803 25.6894 97.7253 23.7844C97.5723 23.1324 97.5483 22.4054 97.5483 21.7044V16.4894H96.0053V13.1814H97.5483L98.3063 10.2994H101.644V13.1814H104.982V16.4894L101.644 16.4884ZM110.724 14.7834C111.483 13.6304 112.494 12.8784 113.785 12.8784C114.467 12.8784 115.125 13.0284 115.605 13.2284L114.594 16.5874C114.214 16.3864 113.759 16.2864 113.303 16.2864C112.393 16.2864 111.457 16.7874 111.002 17.5144V26.6134H106.905V13.1804H110.369L110.724 14.7834ZM129.505 19.8984C129.505 23.8584 126.547 26.9164 122.348 26.9164C118.149 26.9164 115.191 23.8584 115.191 19.8984C115.191 15.9374 118.149 12.8794 122.348 12.8794C126.547 12.8794 129.505 15.9374 129.505 19.8984ZM122.348 16.2884C120.527 16.2884 119.339 17.8434 119.339 19.8984C119.339 21.9534 120.527 23.5064 122.348 23.5064C124.169 23.5064 125.357 21.9534 125.357 19.8984C125.357 17.8434 124.169 16.2884 122.348 16.2884ZM135.56 26.6154H131.464V7.81641H135.56V26.6154ZM146.451 26.6154L146.072 25.5634C145.263 26.5914 143.846 26.9164 142.506 26.9164C139.977 26.9164 137.6 25.3124 137.6 22.5794C137.6 19.3214 140.711 18.2934 143.467 18.2934C144.226 18.2934 145.035 18.3934 145.793 18.5694V18.4694C145.793 16.9154 145.187 15.9374 143.315 15.9374C141.797 15.9374 140.507 16.4884 139.294 17.0904L138.232 14.3084C140.079 13.4054 142.152 12.8794 144.226 12.8794C147.943 12.8794 149.89 15.0594 149.89 18.5694V26.6154H146.45H146.451ZM145.793 20.8504C145.211 20.7254 144.706 20.6254 144.175 20.6254C142.937 20.6254 141.596 21.1524 141.596 22.5814C141.596 23.5834 142.481 24.2104 143.442 24.2104C144.404 24.2104 145.112 23.8604 145.795 23.2334V20.8524L145.793 20.8504ZM155.983 13.1804L156.336 14.9094C157.474 13.4054 159.092 12.8784 160.483 12.8784C161.798 12.8784 163.088 13.5804 163.973 14.6584C165.086 16.0624 165.187 17.7664 165.187 19.6464V26.6144H161.091V19.7974C161.091 18.9194 161.091 17.8914 160.788 17.2154C160.484 16.5384 159.852 16.2874 159.17 16.2874C158.285 16.2874 157.197 16.7634 156.641 17.6924V26.6154H152.544V13.1804H155.983ZM172.123 16.4884V21.4014C172.123 21.8274 172.123 22.2034 172.199 22.6054C172.299 23.1564 172.552 23.5084 173.134 23.5084C173.716 23.5084 174.12 23.3824 174.601 23.1324L175.892 26.0904C174.93 26.6404 173.539 26.9174 172.401 26.9174C170.201 26.9174 168.658 25.6894 168.203 23.7844C168.051 23.1324 168.026 22.4054 168.026 21.7044V16.4894H166.483V13.1814H168.026L168.785 10.2994H172.123V13.1814H175.461V16.4894L172.123 16.4884Z" fill="white"/>
</g>
</g>
<defs>
<clipPath id="clip0_1013_190">
<rect width="176" height="37" fill="white"/>
</clipPath>
</defs>
</svg>
