<svg width="112" height="48" viewBox="0 0 112 48" fill="none" xmlns="http://www.w3.org/2000/svg">
<path d="M60.924 24.9155H63.2267V29.4073C62.6081 29.876 61.913 30.2297 61.1735 30.4521C60.4141 30.6935 59.6232 30.8169 58.8276 30.8183C57.7675 30.837 56.7198 30.5835 55.7814 30.0811C54.9017 29.6132 54.1662 28.9069 53.6563 28.0402C53.1532 27.1417 52.8887 26.1254 52.8887 25.0913C52.8887 24.0571 53.1532 23.0408 53.6563 22.1423C54.167 21.2698 54.9084 20.561 55.7958 20.0966C56.7449 19.5953 57.8016 19.342 58.8708 19.3593C59.7589 19.3485 60.6405 19.5143 61.4661 19.8476C62.2212 20.1592 62.8934 20.6476 63.4282 21.2732L61.8115 22.7917C61.4535 22.3967 61.0176 22.0829 60.5324 21.8709C60.0472 21.6589 59.5235 21.5534 58.9955 21.5613C58.3529 21.5478 57.7173 21.7007 57.1486 22.0056C56.6152 22.2836 56.172 22.7125 55.8726 23.2408C55.5756 23.8091 55.4203 24.4428 55.4203 25.0864C55.4203 25.73 55.5756 26.3637 55.8726 26.9319C56.1663 27.4612 56.6001 27.896 57.1246 28.1867C57.685 28.4965 58.3148 28.653 58.9524 28.6408C59.6344 28.6452 60.3069 28.4774 60.9096 28.1525L60.924 24.9155ZM68.873 22.3083C69.4143 22.0884 69.9932 21.9805 70.576 21.991V24.2661C70.3073 24.2661 70.125 24.2369 70.0339 24.2369C69.737 24.2189 69.4396 24.262 69.1593 24.3634C68.8791 24.4649 68.6219 24.6228 68.4028 24.8276C68.1902 25.0681 68.0279 25.3501 67.9256 25.6565C67.8233 25.9628 67.7833 26.2871 67.808 26.6097V30.6279H65.4094V22.1179H67.7264V23.2408C68.0164 22.8279 68.4133 22.505 68.873 22.3083ZM73.555 30.1934C72.8767 29.8393 72.3086 29.3 71.9144 28.6359C71.5278 27.9466 71.3245 27.1666 71.3245 26.3729C71.3245 25.5792 71.5278 24.7992 71.9144 24.1099C72.3065 23.4404 72.8748 22.8959 73.555 22.5378C74.2906 22.1683 75.0998 21.9762 75.9201 21.9762C76.7403 21.9762 77.5495 22.1683 78.2851 22.5378C78.9597 22.8936 79.5243 23.4327 79.9161 24.0953C80.306 24.7835 80.5112 25.5639 80.5112 26.3583C80.5112 27.1526 80.306 27.9331 79.9161 28.6212C79.5243 29.2838 78.9597 29.823 78.2851 30.1787C77.5495 30.5482 76.7403 30.7403 75.9201 30.7403C75.0998 30.7403 74.2906 30.5482 73.555 30.1787V30.1934ZM77.46 28.0891C77.8439 27.6053 78.0534 27.0021 78.0534 26.3802C78.0534 25.7583 77.8439 25.1552 77.46 24.6714C77.2661 24.4544 77.0287 24.2824 76.7639 24.167C76.499 24.0516 76.2129 23.9955 75.9249 24.0025C75.6384 23.9927 75.3531 24.0446 75.0877 24.1548C74.8224 24.265 74.5829 24.4311 74.385 24.6421C73.9976 25.1243 73.786 25.7281 73.786 26.3509C73.786 26.9738 73.9976 27.5775 74.385 28.0598C74.5834 28.2701 74.823 28.4356 75.0883 28.5458C75.3535 28.656 75.6385 28.7083 75.9249 28.6994C76.2084 28.7126 76.4916 28.6651 76.756 28.56C77.0204 28.4548 77.2603 28.2944 77.46 28.0891ZM95.3247 22.1179L92.2977 30.6279H89.9663L88.0858 25.3452L86.1381 30.6279H83.8067L80.794 22.1179H83.0775L85.0539 27.8742L87.1023 22.1179H89.1555L91.1464 27.8742L93.1804 22.1179H95.3247ZM102.089 30.2178C101.824 30.4068 101.526 30.5427 101.211 30.6182C100.852 30.7115 100.483 30.7574 100.112 30.7549C99.2736 30.8087 98.4468 30.5306 97.8049 29.9786C97.5194 29.679 97.2993 29.3215 97.1588 28.9295C97.0182 28.5374 96.9605 28.1196 96.9894 27.7034V24.2076H95.6893V22.3083H96.9798V20.2333H99.4071V22.3083H101.489V24.2076H99.4071V27.6692C99.3861 27.971 99.4826 28.2692 99.6758 28.4992C99.777 28.6007 99.8981 28.6792 100.031 28.7297C100.164 28.7802 100.306 28.8015 100.448 28.7921C100.794 28.799 101.132 28.6872 101.408 28.4748L102.089 30.2178ZM111.04 22.9381C111.68 23.5728 112 24.5119 112 25.7553V30.6377H109.601V26.1459C109.641 25.6042 109.486 25.0663 109.165 24.6323C109.002 24.4624 108.805 24.3307 108.587 24.2464C108.369 24.1621 108.136 24.1272 107.903 24.1441C107.637 24.1339 107.371 24.1803 107.123 24.2803C106.875 24.3803 106.651 24.5318 106.464 24.7251C106.259 24.9579 106.102 25.2296 106 25.5245C105.899 25.8194 105.856 26.1318 105.874 26.4437V30.6523H103.475V18.9346H105.874V23.026C106.205 22.6934 106.603 22.437 107.039 22.2741C107.518 22.0985 108.023 22.0109 108.531 22.0154C108.989 21.9927 109.446 22.0627 109.877 22.221C110.307 22.3794 110.703 22.6232 111.04 22.9381ZM54.7164 47.438C54.0539 47.2354 53.4409 46.8927 52.9175 46.4322L53.4932 45.197C53.9604 45.6076 54.5012 45.9226 55.0858 46.1246C55.7276 46.3596 56.4043 46.4801 57.0863 46.4811C57.792 46.5247 58.4947 46.3548 59.1059 45.9928C59.3108 45.8602 59.4794 45.6769 59.596 45.4601C59.7126 45.2432 59.7734 44.9999 59.7727 44.7527C59.7793 44.5807 59.7503 44.4092 59.6875 44.2493C59.6247 44.0895 59.5295 43.9449 59.4081 43.825C59.1508 43.5772 58.8428 43.3905 58.5062 43.2782C58.1512 43.1513 57.6427 43.0097 56.9903 42.8534C56.3177 42.6974 55.6559 42.4968 55.0091 42.2529C54.5116 42.0544 54.0688 41.7361 53.7186 41.3253C53.3386 40.8464 53.1471 40.2408 53.1813 39.6262C53.1803 39.0571 53.3474 38.5008 53.6611 38.0296C54.007 37.5216 54.4902 37.1264 55.0522 36.892C55.786 36.5834 56.5758 36.4369 57.3693 36.4624C58.0092 36.4614 58.6464 36.5468 59.2642 36.7163C59.8365 36.8599 60.3791 37.1063 60.8665 37.4437L60.3531 38.7083C59.8983 38.4161 59.4059 38.1894 58.89 38.0345C58.3961 37.8861 57.8842 37.8089 57.3693 37.805C56.6751 37.7549 55.9828 37.9255 55.3881 38.2933C55.1827 38.431 55.0146 38.6189 54.899 38.8398C54.7833 39.0607 54.7239 39.3076 54.726 39.5578C54.72 39.7306 54.7502 39.9028 54.8148 40.0627C54.8793 40.2227 54.9766 40.3668 55.1002 40.4855C55.3682 40.7323 55.6834 40.9201 56.0261 41.0372C56.5168 41.2057 57.0165 41.3459 57.5228 41.4571C58.1879 41.6157 58.8418 41.8196 59.4801 42.0674C59.9721 42.2663 60.411 42.5808 60.7609 42.9853C61.138 43.4505 61.3298 44.043 61.2982 44.6453C61.2971 45.2125 61.1301 45.7666 60.8185 46.2369C60.4593 46.7521 59.9586 47.1478 59.3793 47.3745C58.6382 47.674 57.845 47.8169 57.0479 47.7944C56.257 47.8031 55.4699 47.6827 54.7164 47.438ZM66.2297 47.2378C65.586 46.8817 65.0502 46.3532 64.6802 45.7096C64.3187 45.0358 64.1293 44.2803 64.1293 43.5126C64.1293 42.7448 64.3187 41.9893 64.6802 41.3155C65.0507 40.6747 65.5866 40.1495 66.2297 39.7971C66.9214 39.4272 67.6936 39.2409 68.4748 39.2551C69.1667 39.242 69.8513 39.3995 70.4704 39.7141C71.0456 40.0071 71.5204 40.4699 71.8328 41.0421L70.6959 41.7842C70.4591 41.403 70.1283 41.0916 69.7365 40.881C69.3425 40.6789 68.9063 40.5768 68.4652 40.5831C67.9632 40.5776 67.468 40.7019 67.0261 40.9444C66.5993 41.1851 66.2483 41.544 66.0138 41.9795C65.7643 42.4534 65.6388 42.9847 65.6493 43.5223C65.6372 44.0663 65.7627 44.6043 66.0138 45.0847C66.2483 45.5202 66.5993 45.8791 67.0261 46.1198C67.4671 46.3645 67.9629 46.489 68.4652 46.4811C68.9063 46.4874 69.3425 46.3853 69.7365 46.1832C70.1283 45.9726 70.4591 45.6612 70.6959 45.28L71.852 45.9733C71.5374 46.5461 71.0634 47.0115 70.4896 47.3111C69.8738 47.6379 69.1885 47.8055 68.494 47.7993C67.7089 47.8061 66.9354 47.606 66.2489 47.2183L66.2297 47.2378ZM82.0988 40.1584C82.4255 40.5236 82.676 40.9525 82.8351 41.4191C82.9943 41.8857 83.0588 42.3803 83.0247 42.873V47.6968H81.5328V43.0439C81.5815 42.3807 81.3751 41.7241 80.9571 41.213C80.7402 40.9975 80.4812 40.8309 80.1969 40.7241C79.9125 40.6173 79.6093 40.5726 79.3069 40.5929C78.9554 40.5721 78.6034 40.6256 78.2732 40.7499C77.9429 40.8743 77.6416 41.0668 77.388 41.3155C77.1422 41.594 76.9535 41.9198 76.8333 42.2736C76.713 42.6275 76.6635 43.0022 76.6876 43.3759V47.6968H75.1957V35.979H76.6876V40.5197C77.0157 40.0913 77.447 39.7566 77.9397 39.5481C78.4737 39.3189 79.0488 39.2058 79.6283 39.2161C80.0828 39.1933 80.5371 39.2632 80.9647 39.4217C81.3922 39.5802 81.7844 39.824 82.118 40.1388L82.0988 40.1584ZM88.7142 47.2378C88.0736 46.8826 87.5422 46.3536 87.1791 45.7096C86.8205 45.0348 86.6328 44.2797 86.6328 43.5126C86.6328 42.7454 86.8205 41.9903 87.1791 41.3155C87.5426 40.6743 88.0741 40.1486 88.7142 39.7971C89.3949 39.4391 90.1499 39.2524 90.9161 39.2524C91.6823 39.2524 92.4373 39.4391 93.118 39.7971C93.7534 40.1517 94.281 40.6769 94.6435 41.3155C95.0021 41.9903 95.1898 42.7454 95.1898 43.5126C95.1898 44.2797 95.0021 45.0348 94.6435 45.7096C94.2814 46.3511 93.7539 46.8795 93.118 47.2378C92.4386 47.6001 91.6831 47.7894 90.9161 47.7894C90.1491 47.7894 89.3936 47.6001 88.7142 47.2378ZM92.3409 46.0905C92.7603 45.8437 93.1028 45.4816 93.3291 45.0456C93.5625 44.566 93.6839 44.038 93.6839 43.5028C93.6839 42.9676 93.5625 42.4396 93.3291 41.96C93.1024 41.5269 92.7597 41.168 92.3409 40.9249C91.903 40.6877 91.4145 40.5636 90.9185 40.5636C90.4224 40.5636 89.934 40.6877 89.4961 40.9249C89.078 41.1706 88.7345 41.5287 88.5031 41.96C88.2635 42.4377 88.1386 42.9664 88.1386 43.5028C88.1386 44.0392 88.2635 44.5679 88.5031 45.0456C88.734 45.4798 89.0775 45.8411 89.4961 46.0905C89.932 46.3341 90.4212 46.4618 90.9185 46.4618C91.4158 46.4618 91.905 46.3341 92.3409 46.0905ZM100.136 47.2378C99.497 46.8825 98.9673 46.3534 98.606 45.7096C98.2474 45.0348 98.0597 44.2797 98.0597 43.5126C98.0597 42.7454 98.2474 41.9903 98.606 41.3155C98.9678 40.6747 99.4977 40.1489 100.136 39.7971C100.818 39.441 101.574 39.2554 102.341 39.2554C103.107 39.2554 103.863 39.441 104.545 39.7971C105.179 40.152 105.705 40.6772 106.066 41.3155C106.424 41.9903 106.612 42.7454 106.612 43.5126C106.612 44.2797 106.424 45.0348 106.066 45.7096C105.705 46.3507 105.179 46.8792 104.545 47.2378C103.865 47.6001 103.108 47.7894 102.341 47.7894C101.573 47.7894 100.817 47.6001 100.136 47.2378ZM103.768 46.0905C104.186 45.8434 104.527 45.4812 104.751 45.0456C104.989 44.5673 105.113 44.0388 105.113 43.5028C105.113 42.9668 104.989 42.4383 104.751 41.96C104.526 41.5272 104.185 41.1683 103.768 40.9249C103.327 40.6787 102.831 40.5541 102.329 40.5636C101.826 40.5527 101.329 40.6774 100.889 40.9249C100.469 41.169 100.123 41.5274 99.8917 41.96C99.652 42.4377 99.5271 42.9664 99.5271 43.5028C99.5271 44.0392 99.652 44.5679 99.8917 45.0456C100.147 45.4845 100.52 45.8401 100.966 46.0709C101.404 46.3262 101.901 46.4545 102.405 46.442C102.89 46.4426 103.366 46.3147 103.787 46.0709L103.768 46.0905ZM110.239 35.9595H111.731V47.6772H110.239V35.9595Z" fill="white"/>
<path d="M46.718 18.7826C45.5851 13.5652 42.6932 8.79503 38.5491 5.39627C34.3752 1.90807 29.0683 0 23.6422 0C10.6137 0 0 10.7627 0 24C0 29.1876 1.60994 34.1366 4.65093 38.3106C7.33416 42.0075 11.1205 44.8994 15.3242 46.5093L15.2348 46.5988L16.6062 46.9565H16.636C16.6658 46.9863 16.7255 47.0161 16.7851 47.0161L16.8447 47.046C19.0509 47.6721 21.3466 48 23.6422 48H24.1193C25.1627 47.9702 26.236 47.8807 27.3093 47.7317C27.6969 47.6721 28.0845 47.6124 28.5317 47.523L28.8 47.4335L39.6224 36.7006V47.9702H48V18.7826H46.718ZM36.7901 27.8162L36.9689 27.6373V26.2062H23.6422V20.5714H46.241V46.2112H41.3814V32.4373L27.8758 45.8236C27.6075 45.8832 27.3391 45.913 27.0112 45.9727C26.087 46.1217 25.0435 46.2112 24.0596 46.241H23.6124C21.913 46.241 20.2435 46.0621 18.6634 45.7043L36.7901 27.8162ZM16.7553 45.0783C12.5516 43.677 8.76522 40.8745 6.08199 37.2373C3.2795 33.3913 1.78882 28.8 1.78882 24C1.78882 11.7466 11.5975 1.78882 23.6422 1.78882C33.6894 1.78882 42.5441 8.91429 44.8696 18.7826H21.8534V28.0248H34.077L16.7553 45.0783Z" fill="white"/>
</svg>
