<svg width="179" height="42" viewBox="0 0 179 42" fill="none" xmlns="http://www.w3.org/2000/svg">
<g clip-path="url(#clip0_1015_207)">
<path d="M25.4091 37.96C25.3851 38.215 25.3411 38.468 25.2771 38.716C25.1291 39.395 24.8221 40.027 24.3831 40.558C24.2101 40.763 24.0161 40.948 23.8041 41.109C22.9961 41.715 21.9901 41.977 20.9971 41.839C20.0041 41.701 19.1031 41.174 18.4831 40.368C18.0291 39.792 17.7461 39.094 17.6671 38.359C17.6251 37.866 17.7161 37.411 18.2891 37.405C18.3921 37.405 18.4951 37.416 18.5951 37.438C19.5001 37.629 20.9151 36.756 21.3111 36.203C21.7071 35.65 22.2591 34.626 22.9461 35.767C23.6341 36.908 23.9761 37.387 24.4041 37.248C24.6321 37.146 24.8881 37.127 25.1281 37.194C25.3771 37.32 25.4301 37.634 25.4091 37.96Z" fill="url(#paint0_linear_1015_207)"/>
<path d="M15.5597 33.7098C15.2897 33.5468 14.9957 33.4228 14.7247 33.2588C14.3197 33.0278 13.9307 32.7698 13.5587 32.4858C13.1227 32.1358 12.5907 31.3558 13.0077 30.5898C13.4247 29.8228 14.4127 29.0238 16.7877 30.0888C18.0927 30.6768 19.4297 30.8728 20.8317 30.9008C21.2047 30.9008 21.6837 31.0038 22.0307 30.8658C22.1877 30.8048 22.5647 30.5938 22.5267 30.3678C22.4947 30.1848 23.1117 30.4918 22.5267 31.6478C22.1177 32.4578 21.7557 33.2858 21.2047 34.0128C20.6357 34.7938 19.8357 35.3658 18.9227 35.6438C18.5977 35.7458 18.2537 35.7658 17.9197 35.7008C17.5857 35.6368 17.2727 35.4898 17.0067 35.2738C16.5577 34.8838 16.2977 34.3018 15.8447 33.9188C15.7547 33.8428 15.6597 33.7728 15.5597 33.7098Z" fill="url(#paint1_linear_1015_207)"/>
<path d="M10.41 30.2805C10.633 30.4035 10.82 30.5865 10.951 30.8095C11.082 31.0315 11.152 31.2865 11.154 31.5455C11.156 31.8055 11.089 32.0615 10.962 32.2855C10.835 32.5105 10.651 32.6965 10.429 32.8235C9.34796 33.4175 7.84296 33.3155 6.28296 32.5315C3.99296 31.3795 2.46896 28.7035 3.72896 27.1185C5.10596 25.3915 6.06996 26.9945 7.59396 28.6625C7.93296 29.0305 8.33996 29.3265 8.78996 29.5335C9.53996 29.8855 10.029 30.0735 10.41 30.2805Z" fill="url(#paint2_linear_1015_207)"/>
<path d="M6.554 22.4037C6.554 24.2197 5.079 24.7877 3.031 24.5937C2.165 24.6897 2.914 27.3727 1.831 27.6857C1.247 27.8537 0 27.0047 0 23.8367C0 20.6677 1.49 18.4317 3.276 18.0967C5.3 17.7157 6.554 19.2327 6.554 22.4037Z" fill="url(#paint3_linear_1015_207)"/>
<path d="M4.27439 15.8712C3.30239 15.5292 1.77539 18.4212 1.77539 15.8562C1.77539 13.6442 3.56539 11.1632 5.73439 10.6782C6.39939 10.5302 6.37339 11.7802 6.71839 11.7802C8.04839 11.7802 8.75739 12.2672 8.39139 13.8572C8.35939 14.0012 8.33539 14.1512 8.30139 14.2922C8.14039 15.0132 7.17339 16.0262 4.27439 15.8712Z" fill="url(#paint4_linear_1015_207)"/>
<path d="M15.6685 11.3749C15.7985 12.4499 15.3875 13.9589 13.0845 13.9659C12.3265 13.9849 11.5825 13.7479 10.9695 13.2909C9.35755 12.0299 10.3305 10.1549 9.67255 9.80686C8.74055 9.30186 8.19555 10.8059 7.51655 9.87886C7.28955 9.54986 7.19355 9.14486 7.24855 8.74686C7.59755 5.63686 10.7095 2.13786 13.7125 2.13086C15.7115 2.13086 12.2485 4.23486 13.0875 7.15686C13.5045 8.88386 15.5645 10.0769 15.6685 11.3749Z" fill="url(#paint5_linear_1015_207)"/>
<path d="M22.8146 10.694C22.0096 11.044 21.1236 11.153 20.2606 11.007C17.5216 10.589 15.1016 8.571 15.1016 5.816C15.1016 2.604 18.2236 0 21.8676 0C24.7646 0 26.1116 1.126 24.0686 1.907C23.6416 2.061 23.2556 2.313 22.9396 2.645C22.6236 2.977 22.3876 3.379 22.2486 3.819C21.3676 6.85 26.4356 9.054 22.8146 10.694Z" fill="url(#paint6_linear_1015_207)"/>
<path d="M35.5912 8.90449C35.5972 9.19749 35.5172 9.48649 35.3632 9.73249C35.2082 9.97949 34.9862 10.1735 34.7232 10.2905C34.4602 10.4075 34.1692 10.4415 33.8882 10.3885C33.6062 10.3355 33.3462 10.1985 33.1412 9.99349C32.1982 9.15949 31.7082 7.41549 30.0032 6.84049C27.9392 6.20449 26.0952 7.44849 24.7992 6.40549C24.4182 6.08049 24.1712 5.62049 24.1082 5.11649C24.0462 4.61349 24.1722 4.10449 24.4612 3.69249C25.0482 2.83449 26.2172 2.02149 28.4352 2.02149C31.9912 2.01949 35.5912 5.28149 35.5912 8.90449Z" fill="url(#paint7_linear_1015_207)"/>
<path d="M33.1622 13.259C33.1622 15.396 31.6272 16.09 29.5432 16.09C27.4592 16.09 25.3652 14.167 25.4612 12.036C25.5442 10.172 26.6682 8.38403 28.7512 8.53203C30.5632 8.65803 30.2632 10.002 31.0822 10.832C32.0042 11.757 33.1622 12.121 33.1622 13.259Z" fill="url(#paint8_linear_1015_207)"/>
<path d="M24.9564 16.9279C24.9564 19.5169 22.6254 20.9409 21.4164 20.5139C20.7124 20.2719 20.2594 19.6709 19.8144 19.1749C19.5574 18.8929 19.2064 18.7209 18.8304 18.6929C17.8194 18.6259 16.0234 18.4469 16.0234 16.3609C16.1084 13.2709 18.8714 12.5029 20.2804 12.5029C22.8044 12.5029 24.9564 14.3469 24.9564 16.9279Z" fill="url(#paint9_linear_1015_207)"/>
<path d="M33.5146 19.8962C34.2326 20.4642 35.8566 20.7212 36.9716 21.8362C38.1336 23.0052 37.5096 25.6712 36.2416 25.7752C33.4316 25.9472 35.2646 23.1992 31.4826 21.7932C28.4336 20.5882 25.3516 24.0512 25.4516 21.1742C25.5196 19.2712 27.1126 17.5752 28.9746 17.5752C30.8376 17.5752 31.3076 18.1502 33.5146 19.8962Z" fill="url(#paint10_linear_1015_207)"/>
<path d="M38.4629 17.0001C38.4629 18.7681 37.3769 19.1941 36.1939 19.1941C35.0099 19.1941 33.9229 18.2121 33.9229 17.0001C33.9229 15.7871 34.7379 14.9961 35.9239 14.9961C37.1089 14.9961 38.4629 15.7891 38.4629 17.0001Z" fill="url(#paint11_linear_1015_207)"/>
<path d="M41.3436 16.4254C41.3436 17.5964 40.3026 18.2144 39.6576 15.4864C38.6786 12.8254 35.1596 14.0974 35.9176 11.5674C36.0986 10.9394 36.8206 10.6634 37.4486 10.7964C39.4276 11.2254 41.3436 13.5024 41.3436 16.4254Z" fill="url(#paint12_linear_1015_207)"/>
<path d="M42.9317 23.6781C42.9317 26.2131 41.8097 28.1951 40.8197 28.1951C39.9027 28.1951 39.0257 26.8441 39.2727 24.2881C39.3127 23.8531 39.3537 23.4341 39.3687 23.0031C39.4517 20.6651 39.6937 19.2411 40.5987 19.1951C42.2187 19.1081 42.9317 21.1441 42.9317 23.6781Z" fill="url(#paint13_linear_1015_207)"/>
<path d="M32.9731 26.4809C33.2861 29.5749 24.3741 31.2519 24.2461 28.3119C24.2461 24.8389 27.4031 23.5939 29.0611 23.3869C31.2661 23.1149 32.9731 24.7719 32.9731 26.4809Z" fill="url(#paint14_linear_1015_207)"/>
<path d="M14.9421 18.8967C14.9421 20.7277 13.7761 21.9627 12.3411 19.7677C11.8091 18.9487 10.6001 18.9337 9.7271 19.3497C9.0591 19.6677 8.5331 20.0917 7.9541 19.5667C7.7731 19.3967 7.6381 19.1807 7.5631 18.9397C7.4891 18.6997 7.4771 18.4437 7.5281 18.1977C7.6881 17.4047 8.1111 16.6927 8.7241 16.1817C9.3381 15.6707 10.1041 15.3907 10.8961 15.3907C12.7991 15.3817 14.9421 16.9607 14.9421 18.8967Z" fill="url(#paint15_linear_1015_207)"/>
<path d="M14.1976 25.9494C14.1976 27.3734 13.3866 28.5624 11.4606 28.5624C11.0026 28.5624 10.5486 28.4704 10.1256 28.2914C9.70263 28.1114 9.31763 27.8484 8.99463 27.5174C8.67063 27.1854 8.41363 26.7924 8.23863 26.3594C8.06363 25.9264 7.97363 25.4624 7.97363 24.9934C7.97363 23.0234 8.82563 21.1504 10.7406 21.1504C12.7396 21.4904 11.8736 22.9164 12.5096 23.8334C13.0526 24.6284 14.1976 25.0394 14.1976 25.9494Z" fill="url(#paint16_linear_1015_207)"/>
<path d="M23.3769 24.6096C23.4829 26.7876 21.5209 29.0346 19.3989 29.0346C17.2769 29.0346 15.5439 26.6266 15.5439 24.4616C15.5439 22.2976 15.9419 20.6836 18.0639 20.6836C19.7919 20.9426 19.7309 22.2886 20.7289 22.8786C21.5289 23.2406 23.2069 21.1546 23.3769 24.6096Z" fill="url(#paint17_linear_1015_207)"/>
<path d="M39.2266 30.0257C39.1366 31.3887 36.4336 33.1577 34.3816 33.1577C32.3306 33.1577 31.3916 32.3277 31.3916 31.3257C31.3916 30.3937 32.2176 30.0347 33.1626 29.3877C33.8196 28.9347 35.3566 27.9187 36.2016 27.9187C37.1176 27.6717 39.2266 28.7367 39.2266 30.0257Z" fill="url(#paint18_linear_1015_207)"/>
<path d="M25.6377 35.3744C25.0397 35.3634 24.5267 35.2544 24.3457 34.2854C24.3457 32.6894 25.4597 31.7444 26.9837 31.4094C28.3437 31.2304 29.1927 31.4094 29.5847 31.7034C29.6457 31.7524 29.6957 31.8154 29.7297 31.8864C29.7637 31.9584 29.7817 32.0374 29.7817 32.1174C29.7817 32.1964 29.7637 32.2754 29.7297 32.3474C29.6957 32.4184 29.6457 32.4814 29.5847 32.5304C29.3357 32.7244 28.8477 32.9664 27.8607 33.3824C26.7197 33.8504 26.8447 35.2524 25.6377 35.3744Z" fill="url(#paint19_linear_1015_207)"/>
<path d="M60.8328 16.2477C60.8368 16.0017 60.9338 15.7667 61.1038 15.5927C61.2738 15.4187 61.5038 15.3187 61.7438 15.3147H68.8228C68.9458 15.3117 69.0668 15.3347 69.1798 15.3827C69.2938 15.4297 69.3958 15.4997 69.4818 15.5897C69.5678 15.6747 69.6358 15.7767 69.6818 15.8897C69.7278 16.0037 69.7508 16.1247 69.7498 16.2477C69.7508 16.3727 69.7278 16.4967 69.6818 16.6127C69.6358 16.7287 69.5678 16.8337 69.4818 16.9227C69.3948 17.0107 69.2928 17.0817 69.1798 17.1287C69.0668 17.1767 68.9458 17.2007 68.8228 17.2007H66.3858V25.7337C66.3868 25.8837 66.3588 26.0327 66.3038 26.1717C66.2488 26.3107 66.1668 26.4367 66.0628 26.5427C65.9598 26.6487 65.8368 26.7327 65.7008 26.7907C65.5658 26.8477 65.4208 26.8767 65.2738 26.8757C64.9778 26.8757 64.6938 26.7557 64.4848 26.5417C64.2748 26.3277 64.1578 26.0367 64.1578 25.7337V17.2007H61.7198C61.6008 17.2007 61.4818 17.1757 61.3728 17.1277C61.2628 17.0797 61.1638 17.0097 61.0808 16.9207C60.9978 16.8317 60.9328 16.7257 60.8898 16.6107C60.8468 16.4947 60.8278 16.3717 60.8328 16.2477Z" fill="white"/>
<path d="M74.4891 26.876C74.1931 26.876 73.9091 26.756 73.6991 26.542C73.4901 26.327 73.3721 26.037 73.3721 25.734V16.452C73.3711 16.301 73.3981 16.151 73.4531 16.011C73.5081 15.87 73.5901 15.743 73.6941 15.635C73.7981 15.527 73.9221 15.442 74.0581 15.383C74.1951 15.325 74.3411 15.295 74.4891 15.295H78.5751C79.0671 15.291 79.5551 15.391 80.0081 15.589C80.4481 15.777 80.8501 16.048 81.1921 16.387C81.5351 16.728 81.8081 17.135 81.9971 17.584C82.1921 18.046 82.2921 18.543 82.2891 19.046C82.2961 19.733 82.1181 20.409 81.7741 20.999C81.4301 21.59 80.9341 22.072 80.3391 22.392L81.9001 25.37C81.9781 25.524 82.0201 25.695 82.0211 25.869C82.0221 26.131 81.9231 26.384 81.7431 26.572C81.6501 26.672 81.5371 26.752 81.4121 26.805C81.2871 26.858 81.1521 26.884 81.0171 26.881C80.8351 26.882 80.6571 26.832 80.5001 26.736C80.3421 26.646 80.2151 26.508 80.1341 26.342L78.2911 22.851H75.6001V25.734C75.6001 26.037 75.4831 26.327 75.2731 26.542C75.0641 26.756 74.7801 26.876 74.4841 26.876H74.4891ZM75.6051 17.2V20.971H78.3111C78.5681 20.974 78.8221 20.921 79.0571 20.816C79.2731 20.724 79.4701 20.59 79.6371 20.422C79.8001 20.255 79.9261 20.054 80.0081 19.834C80.1971 19.354 80.1971 18.817 80.0081 18.338C79.9161 18.11 79.7831 17.903 79.6131 17.729C79.4461 17.559 79.2491 17.422 79.0321 17.325C78.8101 17.225 78.5691 17.175 78.3261 17.175L75.6051 17.2Z" fill="white"/>
<path d="M92.522 16.1879C92.522 15.8849 92.64 15.5949 92.849 15.3799C93.058 15.1659 93.342 15.0459 93.638 15.0459C93.935 15.0459 94.219 15.1659 94.428 15.3799C94.637 15.5949 94.755 15.8849 94.755 16.1879V22.3129C94.767 22.9769 94.647 23.6369 94.404 24.2529C94.192 24.7929 93.868 25.2799 93.453 25.6789C93.044 26.0709 92.562 26.3729 92.034 26.5669C90.909 26.9789 89.679 26.9789 88.554 26.5669C88.027 26.3719 87.544 26.0699 87.135 25.6789C86.722 25.2779 86.399 24.7919 86.184 24.2529C85.942 23.6369 85.824 22.9769 85.838 22.3129V16.1879C85.837 16.0379 85.865 15.8889 85.92 15.7499C85.975 15.6119 86.057 15.4849 86.16 15.3789C86.264 15.2729 86.387 15.1889 86.522 15.1309C86.658 15.0739 86.803 15.0449 86.95 15.0459C87.245 15.0459 87.529 15.1659 87.739 15.3799C87.948 15.5949 88.066 15.8849 88.066 16.1879V22.7269C88.063 23.0319 88.123 23.3339 88.242 23.6139C88.361 23.8839 88.526 24.1309 88.729 24.3419C89.043 24.6589 89.442 24.8759 89.875 24.9639C90.308 25.0529 90.757 25.0099 91.166 24.8409C91.43 24.7209 91.67 24.5519 91.874 24.3419C92.081 24.1289 92.244 23.8749 92.354 23.5959C92.464 23.3159 92.517 23.0179 92.512 22.7169L92.522 16.1879Z" fill="white"/>
<path d="M99.338 16.4527C99.337 16.3027 99.365 16.1547 99.421 16.0167C99.477 15.8777 99.558 15.7527 99.662 15.6467C99.765 15.5407 99.888 15.4567 100.023 15.4007C100.158 15.3437 100.303 15.3147 100.449 15.3147H106.212C106.334 15.3117 106.456 15.3347 106.569 15.3827C106.682 15.4297 106.784 15.4997 106.87 15.5897C106.956 15.6747 107.025 15.7767 107.071 15.8897C107.117 16.0037 107.14 16.1247 107.139 16.2477C107.139 16.3727 107.117 16.4967 107.071 16.6127C107.024 16.7287 106.956 16.8337 106.87 16.9227C106.784 17.0107 106.682 17.0817 106.568 17.1287C106.455 17.1767 106.334 17.2007 106.212 17.2007H101.565V19.7487H105.096C105.218 19.7467 105.34 19.7707 105.453 19.8187C105.566 19.8667 105.668 19.9377 105.754 20.0287C105.84 20.1127 105.909 20.2137 105.956 20.3257C106.003 20.4387 106.027 20.5597 106.026 20.6817C106.026 20.9347 105.928 21.1767 105.754 21.3547C105.58 21.5337 105.342 21.6347 105.096 21.6347H101.565V25.7337C101.565 25.8837 101.537 26.0327 101.481 26.1707C101.425 26.3097 101.343 26.4357 101.239 26.5417C101.135 26.6477 101.012 26.7317 100.877 26.7887C100.741 26.8467 100.596 26.8757 100.449 26.8757C100.303 26.8767 100.158 26.8477 100.022 26.7907C99.887 26.7327 99.764 26.6487 99.66 26.5427C99.557 26.4367 99.475 26.3107 99.42 26.1717C99.364 26.0327 99.336 25.8837 99.338 25.7337V16.4527Z" fill="white"/>
<path d="M110.887 16.4527C110.886 16.3027 110.914 16.1547 110.97 16.0167C111.025 15.8777 111.107 15.7527 111.21 15.6467C111.314 15.5407 111.437 15.4567 111.571 15.4007C111.707 15.3437 111.852 15.3147 111.998 15.3147H117.761C117.883 15.3117 118.005 15.3347 118.117 15.3827C118.231 15.4297 118.333 15.4997 118.419 15.5897C118.505 15.6747 118.573 15.7767 118.619 15.8897C118.665 16.0037 118.689 16.1247 118.687 16.2477C118.688 16.3727 118.665 16.4967 118.619 16.6127C118.573 16.7287 118.505 16.8337 118.419 16.9227C118.332 17.0107 118.23 17.0817 118.117 17.1287C118.004 17.1767 117.883 17.2007 117.761 17.2007H113.1V19.7487H116.629C116.752 19.7467 116.874 19.7707 116.987 19.8187C117.1 19.8667 117.202 19.9377 117.288 20.0287C117.374 20.1127 117.443 20.2137 117.49 20.3257C117.537 20.4387 117.561 20.5597 117.561 20.6817C117.561 20.9347 117.463 21.1767 117.288 21.3547C117.113 21.5337 116.877 21.6347 116.629 21.6347H113.1V25.7337C113.1 26.0367 112.982 26.3277 112.773 26.5417C112.564 26.7557 112.28 26.8757 111.983 26.8757C111.837 26.8767 111.691 26.8477 111.556 26.7907C111.421 26.7327 111.298 26.6487 111.194 26.5427C111.091 26.4367 111.009 26.3107 110.954 26.1717C110.898 26.0327 110.87 25.8837 110.872 25.7337L110.887 16.4527Z" fill="white"/>
<path d="M123.398 26.607C123.251 26.607 123.106 26.577 122.971 26.52C122.835 26.463 122.711 26.378 122.608 26.272C122.504 26.166 122.422 26.04 122.366 25.902C122.31 25.763 122.281 25.615 122.281 25.465V16.188C122.281 16.038 122.31 15.889 122.366 15.751C122.422 15.612 122.504 15.486 122.608 15.38C122.711 15.274 122.835 15.19 122.971 15.133C123.106 15.075 123.251 15.046 123.398 15.046C123.544 15.044 123.69 15.072 123.825 15.128C123.961 15.185 124.084 15.268 124.188 15.374C124.291 15.48 124.373 15.607 124.428 15.745C124.484 15.884 124.511 16.033 124.509 16.183V24.722H128.058C128.18 24.718 128.299 24.741 128.411 24.788C128.523 24.836 128.624 24.906 128.707 24.996C128.793 25.083 128.861 25.187 128.906 25.302C128.952 25.417 128.973 25.54 128.97 25.664C128.973 25.789 128.951 25.913 128.906 26.029C128.861 26.144 128.793 26.249 128.707 26.338C128.622 26.426 128.521 26.495 128.41 26.541C128.299 26.588 128.179 26.61 128.058 26.607H123.398Z" fill="white"/>
<path d="M134.992 24.7217H139.638C139.76 24.7197 139.881 24.7437 139.995 24.7917C140.108 24.8397 140.211 24.9107 140.296 25.0007C140.382 25.0857 140.45 25.1887 140.496 25.3017C140.542 25.4147 140.566 25.5367 140.564 25.6587C140.566 25.7837 140.543 25.9067 140.497 26.0217C140.451 26.1367 140.383 26.2407 140.296 26.3277C140.211 26.4187 140.109 26.4907 139.996 26.5387C139.882 26.5867 139.76 26.6097 139.638 26.6067H133.88C133.584 26.6067 133.3 26.4867 133.09 26.2727C132.881 26.0577 132.764 25.7677 132.764 25.4647V16.4527C132.765 16.1497 132.883 15.8607 133.092 15.6477C133.301 15.4347 133.585 15.3147 133.88 15.3147H139.638C139.76 15.3117 139.881 15.3347 139.994 15.3827C140.108 15.4297 140.21 15.4997 140.296 15.5897C140.382 15.6747 140.45 15.7767 140.496 15.8897C140.542 16.0037 140.566 16.1247 140.564 16.2477C140.565 16.3727 140.542 16.4967 140.496 16.6127C140.45 16.7287 140.382 16.8337 140.296 16.9227C140.21 17.0107 140.107 17.0817 139.994 17.1287C139.881 17.1767 139.76 17.2007 139.638 17.2007H134.992V19.8287H138.521C138.765 19.8287 139 19.9277 139.173 20.1047C139.345 20.2817 139.443 20.5217 139.443 20.7717C139.443 21.0217 139.345 21.2607 139.173 21.4377C139 21.6147 138.765 21.7137 138.521 21.7137H134.992V24.7217Z" fill="white"/>
<path d="M151.264 18.2882C151.078 18.2892 150.896 18.2392 150.737 18.1432C150.563 18.0422 150.419 17.8952 150.318 17.7192C150.26 17.6232 150.193 17.5332 150.118 17.4502C150.025 17.3462 149.919 17.2572 149.801 17.1852C149.649 17.0962 149.484 17.0312 149.313 16.9912C149.105 16.9332 148.891 16.9062 148.675 16.9112C148.417 16.9042 148.159 16.9442 147.915 17.0312C147.736 17.0952 147.57 17.1932 147.427 17.3202C147.312 17.4302 147.221 17.5622 147.159 17.7092C147.104 17.8362 147.074 17.9742 147.071 18.1132C147.075 18.2952 147.139 18.4712 147.252 18.6122C147.387 18.7732 147.553 18.9052 147.739 19.0012C147.969 19.1222 148.211 19.2192 148.46 19.2902L149.333 19.5592C149.767 19.6892 150.215 19.8292 150.674 19.9882C151.117 20.1402 151.538 20.3512 151.927 20.6172C152.3 20.8782 152.614 21.2182 152.848 21.6142C153.1 22.0602 153.224 22.5702 153.204 23.0852C153.21 23.6012 153.107 24.1112 152.902 24.5822C152.699 25.0392 152.401 25.4462 152.029 25.7742C151.617 26.1342 151.14 26.4082 150.625 26.5822C150.013 26.7872 149.372 26.8862 148.729 26.8762C147.843 26.9072 146.964 26.7082 146.174 26.2972C145.546 25.9652 145.036 25.4432 144.711 24.8012C144.608 24.6242 144.55 24.4242 144.541 24.2182C144.543 23.9352 144.653 23.6652 144.848 23.4652C144.947 23.3532 145.07 23.2652 145.206 23.2062C145.343 23.1472 145.49 23.1202 145.638 23.1252C145.855 23.1212 146.067 23.1862 146.247 23.3102C146.436 23.4432 146.585 23.6282 146.676 23.8442C146.826 24.1912 147.085 24.4772 147.412 24.6572C147.838 24.8882 148.316 24.9982 148.796 24.9762C149.376 25.0002 149.946 24.8242 150.415 24.4772C150.599 24.3442 150.748 24.1692 150.852 23.9652C150.955 23.7612 151.01 23.5352 151.01 23.3052C151.019 23.0562 150.945 22.8122 150.801 22.6122C150.648 22.4052 150.453 22.2352 150.23 22.1132C149.965 21.9652 149.688 21.8432 149.401 21.7492C149.089 21.6442 148.768 21.5342 148.426 21.4302C148.002 21.3052 147.578 21.1652 147.154 21.0212C146.748 20.8822 146.363 20.6872 146.008 20.4422C145.673 20.2132 145.388 19.9142 145.174 19.5642C144.943 19.1692 144.83 18.7132 144.848 18.2532C144.845 17.8302 144.926 17.4112 145.087 17.0212C145.251 16.6232 145.501 16.2682 145.818 15.9832C146.175 15.6642 146.589 15.4202 147.037 15.2652C147.595 15.0752 148.18 14.9842 148.768 14.9962C149.19 14.9902 149.613 15.0352 150.025 15.1302C150.364 15.2062 150.692 15.3252 151.001 15.4852C151.459 15.7292 151.843 16.0962 152.112 16.5472C152.244 16.7372 152.32 16.9622 152.331 17.1952C152.33 17.4722 152.222 17.7382 152.029 17.9332C151.934 18.0462 151.817 18.1362 151.685 18.1972C151.552 18.2582 151.409 18.2892 151.264 18.2882Z" fill="white"/>
<path d="M166.202 16.1229C166.303 15.8089 166.5 15.5359 166.763 15.3449C167.023 15.1509 167.338 15.0459 167.66 15.0459C167.982 15.0459 168.297 15.1509 168.557 15.3449C168.823 15.5419 169.023 15.8189 169.128 16.1379L172.101 25.4849C172.123 25.5379 172.14 25.5929 172.15 25.6489C172.155 25.7159 172.155 25.7819 172.15 25.8489C172.148 25.9819 172.121 26.1129 172.069 26.2339C172.017 26.3559 171.942 26.4659 171.848 26.5569C171.669 26.7419 171.431 26.8549 171.177 26.8739C170.923 26.8929 170.672 26.8179 170.468 26.6619C170.287 26.5209 170.154 26.3229 170.093 26.0979L169.546 24.2329H165.754L165.212 26.0979C165.147 26.3219 165.014 26.5199 164.833 26.6619C164.629 26.8179 164.378 26.8929 164.124 26.8719C163.871 26.8519 163.634 26.7379 163.457 26.5519C163.36 26.4539 163.283 26.3359 163.232 26.2069C163.18 26.0779 163.154 25.9389 163.155 25.7989C163.156 25.6859 163.171 25.5739 163.199 25.4649L166.202 16.1229ZM168.976 22.3479L167.66 17.8589L166.344 22.3479H168.976Z" fill="white"/>
<path d="M177.367 26.8769C177.219 26.8799 177.074 26.8529 176.938 26.7949C176.801 26.7369 176.678 26.6519 176.577 26.5429C176.471 26.4379 176.388 26.3119 176.332 26.1729C176.276 26.0339 176.248 25.8849 176.25 25.7349V16.1889C176.248 16.0379 176.276 15.8889 176.332 15.7499C176.388 15.6109 176.471 15.4849 176.577 15.3809C176.681 15.2749 176.804 15.1899 176.939 15.1329C177.075 15.0749 177.22 15.0459 177.367 15.0459C177.514 15.0459 177.659 15.0749 177.794 15.1329C177.93 15.1899 178.053 15.2749 178.156 15.3809C178.262 15.4849 178.345 15.6109 178.402 15.7499C178.458 15.8889 178.486 16.0379 178.483 16.1889V25.7349C178.486 25.8849 178.458 26.0339 178.402 26.1729C178.345 26.3119 178.262 26.4379 178.156 26.5429C178.055 26.6519 177.932 26.7369 177.796 26.7949C177.66 26.8529 177.514 26.8799 177.367 26.8769Z" fill="white"/>
</g>
<defs>
<linearGradient id="paint0_linear_1015_207" x1="21.5164" y1="35.25" x2="21.5446" y2="41.8751" gradientUnits="userSpaceOnUse">
<stop stop-color="#8644ED"/>
<stop offset="1" stop-color="#2696E6"/>
</linearGradient>
<linearGradient id="paint1_linear_1015_207" x1="17.7934" y1="29.5742" x2="17.8124" y2="35.7383" gradientUnits="userSpaceOnUse">
<stop stop-color="#8644ED"/>
<stop offset="1" stop-color="#2696E6"/>
</linearGradient>
<linearGradient id="paint2_linear_1015_207" x1="7.19461" y1="26.375" x2="7.22406" y2="33.2049" gradientUnits="userSpaceOnUse">
<stop stop-color="#8644ED"/>
<stop offset="1" stop-color="#2696E6"/>
</linearGradient>
<linearGradient id="paint3_linear_1015_207" x1="3.2607" y1="18.0391" x2="3.33163" y2="27.7055" gradientUnits="userSpaceOnUse">
<stop stop-color="#8644ED"/>
<stop offset="1" stop-color="#2696E6"/>
</linearGradient>
<linearGradient id="paint4_linear_1015_207" x1="5.11461" y1="10.666" x2="5.14367" y2="16.9274" gradientUnits="userSpaceOnUse">
<stop stop-color="#8644ED"/>
<stop offset="1" stop-color="#2696E6"/>
</linearGradient>
<linearGradient id="paint5_linear_1015_207" x1="11.4407" y1="2.13086" x2="11.5231" y2="13.9666" gradientUnits="userSpaceOnUse">
<stop stop-color="#8644ED"/>
<stop offset="1" stop-color="#2696E6"/>
</linearGradient>
<linearGradient id="paint6_linear_1015_207" x1="20.0509" y1="2.95314e-10" x2="20.1122" y2="11.07" gradientUnits="userSpaceOnUse">
<stop stop-color="#8644ED"/>
<stop offset="1" stop-color="#2696E6"/>
</linearGradient>
<linearGradient id="paint7_linear_1015_207" x1="29.8136" y1="2.02148" x2="29.844" y2="10.4129" gradientUnits="userSpaceOnUse">
<stop stop-color="#8644ED"/>
<stop offset="1" stop-color="#2696E6"/>
</linearGradient>
<linearGradient id="paint8_linear_1015_207" x1="29.2909" y1="8.52344" x2="29.3279" y2="16.09" gradientUnits="userSpaceOnUse">
<stop stop-color="#8644ED"/>
<stop offset="1" stop-color="#2696E6"/>
</linearGradient>
<linearGradient id="paint9_linear_1015_207" x1="20.4677" y1="12.5029" x2="20.5041" y2="20.5889" gradientUnits="userSpaceOnUse">
<stop stop-color="#8644ED"/>
<stop offset="1" stop-color="#2696E6"/>
</linearGradient>
<linearGradient id="paint10_linear_1015_207" x1="31.4873" y1="17.5752" x2="31.5149" y2="25.783" gradientUnits="userSpaceOnUse">
<stop stop-color="#8644ED"/>
<stop offset="1" stop-color="#2696E6"/>
</linearGradient>
<linearGradient id="paint11_linear_1015_207" x1="36.1816" y1="14.9961" x2="36.2009" y2="19.1941" gradientUnits="userSpaceOnUse">
<stop stop-color="#8644ED"/>
<stop offset="1" stop-color="#2696E6"/>
</linearGradient>
<linearGradient id="paint12_linear_1015_207" x1="38.5638" y1="10.7637" x2="38.6037" y2="17.4204" gradientUnits="userSpaceOnUse">
<stop stop-color="#8644ED"/>
<stop offset="1" stop-color="#2696E6"/>
</linearGradient>
<linearGradient id="paint13_linear_1015_207" x1="41.0719" y1="19.1924" x2="41.1808" y2="28.194" gradientUnits="userSpaceOnUse">
<stop stop-color="#8644ED"/>
<stop offset="1" stop-color="#2696E6"/>
</linearGradient>
<linearGradient id="paint14_linear_1015_207" x1="28.5919" y1="23.3574" x2="28.6158" y2="29.8416" gradientUnits="userSpaceOnUse">
<stop stop-color="#8644ED"/>
<stop offset="1" stop-color="#2696E6"/>
</linearGradient>
<linearGradient id="paint15_linear_1015_207" x1="11.2011" y1="15.3906" x2="11.2216" y2="20.9397" gradientUnits="userSpaceOnUse">
<stop stop-color="#8644ED"/>
<stop offset="1" stop-color="#2696E6"/>
</linearGradient>
<linearGradient id="paint16_linear_1015_207" x1="11.0702" y1="21.1504" x2="11.1141" y2="28.5623" gradientUnits="userSpaceOnUse">
<stop stop-color="#8644ED"/>
<stop offset="1" stop-color="#2696E6"/>
</linearGradient>
<linearGradient id="paint17_linear_1015_207" x1="19.443" y1="20.6836" x2="19.4873" y2="29.0346" gradientUnits="userSpaceOnUse">
<stop stop-color="#8644ED"/>
<stop offset="1" stop-color="#2696E6"/>
</linearGradient>
<linearGradient id="paint18_linear_1015_207" x1="35.2896" y1="27.8828" x2="35.3073" y2="33.1577" gradientUnits="userSpaceOnUse">
<stop stop-color="#8644ED"/>
<stop offset="1" stop-color="#2696E6"/>
</linearGradient>
<linearGradient id="paint19_linear_1015_207" x1="27.0502" y1="31.3379" x2="27.0651" y2="35.3744" gradientUnits="userSpaceOnUse">
<stop stop-color="#8644ED"/>
<stop offset="1" stop-color="#2696E6"/>
</linearGradient>
<clipPath id="clip0_1015_207">
<rect width="179" height="42" fill="white"/>
</clipPath>
</defs>
</svg>
